<svg version="1.2" xmlns="http://www.w3.org/2000/svg" viewBox="0 0 249 291" width="249" height="291">
	<title>logo</title>
	<style>
		.s0 { fill: #212121 } 
		.s1 { fill: #bc4141 } 
		.s2 { fill: #ff5353;stroke: #ffffff;stroke-width: 2.2 } 
		.s3 { opacity: .6;mix-blend-mode: overlay;fill: #ffffff } 
		.s4 { fill: #ffffff } 
	</style>
	<path id="background" class="s0" d="m263 312l-48 3-44 3-160 11-114-27c0 0-8-19.1-8-27 0-7.9 3-60.1 2-75-1-14.9-3-70.1-3-85 0-14.9 14-76 14-76l31-61 56-18 205-3 78 24 7 318z"/>
	<path id="Forma 1 copy" class="s1" d="m163.7 12c-29.7 0.4 80.3-16.9 84.3 100.6 4 117.6-153.7 97.6-153.7 97.6v78.2h-75.3l-3-279.4c0 0 177.5 2.7 147.7 3zm-155.7 263l4-9 1-6 17 6 3 4-3 14-11 4-14-10z"/>
	<path id="Forma 1" class="s2" d="m152 5c-30 0.4 81-16.7 85 99 4 115.7-155 96-155 96v77h-76l-3-275c0 0 179 2.6 149 3z"/>
	<path id="Shape 13" class="s3" d="m81 243l-17-6-1-11 6-11 13-4 1 16"/>
	<path id="Shape 13 copy" class="s3" d="m4 76l1-16 13 4 6 11-1 11-17 6"/>
	<path id="Shape 12" class="s3" d="m170 192.7l3.6-13.5 3.3-12.6 5.6-5.7 20.6 4.3 1.6 9.8-12.5 8.1-7.3 4.2"/>
	<path id="Shape 2" class="s3" d="m220 144l-30-15-5-12 9-12 11-5 11 2 9 26"/>
	<path id="Shape 3" class="s3" d="m24.9 234.4l-2.6 40.7-18-0.3 2.8-19.9z"/>
	<path id="Shape 9" class="s3" d="m23.1 46.5l-8.4-16.7-2.7-13.8 8-0.5 7.3 0.6 3.9 4.3-1 10.4-2 15.7"/>
	<path id="Shape 10" class="s3" d="m109.7 190.9l11.5-6.8 16.8 7.3-11 9.5-21.1-0.5"/>
	<path id="Shape 11" class="s3" d="m86.3 21l20.8-1.6 15.8-0.7 8.7 11.6-1.2 7.9-24.4 6.2-10.9-3.3-16.5-15"/>
	<path id="Shape 6" class="s3" d="m199.6 34.4l13.5 18.7-6.6 8.5-16.2 8.5-8.6 2.8-9.1-8.6 1-6.6 9.8-11.7 10.2-10.7"/>
	<path id="Shape 8" class="s3" d="m23.8 175.8l-10.9-5.4-1.3-12 1-11.6 2.8-9.1 9.7 2 3.4 12.4-0.2 20.8"/>
	<path id="Forma 2" class="s4" d="m125 63c-0.3 0.8 32-3.5 34 33 2 36.5-31.6 38.1-32 39-0.4 0.9-43 3-43 3l-1-75c0 0 42.2-0.8 42 0z"/>
</svg>